<svg width="14" height="14" viewBox="0 0 14 14" fill="none" xmlns="http://www.w3.org/2000/svg">
<path d="M6.99829 0.435791C4.3456 0.435791 2.18665 2.59561 2.18665 5.24829C2.18664 9.91586 6.72742 13.4642 6.72742 13.4642C6.88693 13.5913 7.11306 13.5913 7.27258 13.4642C7.27258 13.4642 11.8142 9.91586 11.8142 5.24829C11.8142 2.59561 9.65098 0.435791 6.99829 0.435791ZM6.99829 3.06165C8.20123 3.06165 9.18835 4.04535 9.18835 5.24829C9.18836 6.45124 8.20124 7.4375 6.99829 7.4375C5.79534 7.4375 4.81164 6.45124 4.81165 5.24829C4.81165 4.04535 5.79535 3.06165 6.99829 3.06165Z" fill="black"/>
</svg>
