<svg width="24" height="24" viewBox="0 0 24 24" fill="none" xmlns="http://www.w3.org/2000/svg">
<path d="M11.295 11.5575L11.2125 6.30753L13.9275 3.59253H4.08C3.72127 3.59252 3.37711 3.73452 3.12275 3.98748C2.86838 4.24044 2.72449 4.5838 2.7225 4.94253V21.15C2.72449 21.5088 2.86838 21.8521 3.12275 22.1051C3.37711 22.358 3.72127 22.5 4.08 22.5H15.5625C15.9212 22.5 16.2654 22.358 16.5198 22.1051C16.7741 21.8521 16.918 21.5088 16.92 21.15V11.13L16.485 11.5575H11.295ZM8.4675 14.0475H5.085C4.88609 14.0475 4.69533 13.9685 4.55467 13.8279C4.41402 13.6872 4.335 13.4964 4.335 13.2975C4.335 13.0986 4.41402 12.9079 4.55467 12.7672C4.69533 12.6265 4.88609 12.5475 5.085 12.5475H8.4675C8.66642 12.5475 8.85718 12.6265 8.99783 12.7672C9.13849 12.9079 9.2175 13.0986 9.2175 13.2975C9.2175 13.4964 9.13849 13.6872 8.99783 13.8279C8.85718 13.9685 8.66642 14.0475 8.4675 14.0475ZM10.4925 10.6725H5.085C4.88609 10.6725 4.69533 10.5935 4.55467 10.4529C4.41402 10.3122 4.335 10.1214 4.335 9.92253C4.335 9.72362 4.41402 9.53285 4.55467 9.3922C4.69533 9.25155 4.88609 9.17253 5.085 9.17253H10.5C10.6989 9.17253 10.8897 9.25155 11.0303 9.3922C11.171 9.53285 11.25 9.72362 11.25 9.92253C11.25 10.1214 11.171 10.3122 11.0303 10.4529C10.8897 10.5935 10.6989 10.6725 10.5 10.6725H10.4925Z" fill="black"/>
<path d="M18.1275 1.5L16.0575 3.57L12.72 6.9L12.7725 10.0575H15.87L16.92 9.015V9.0075L21.2775 4.65L18.1275 1.5Z" fill="black"/>
</svg>
