<svg width="42" height="42" viewBox="0 0 42 42" fill="none" xmlns="http://www.w3.org/2000/svg">
<path fill-rule="evenodd" clip-rule="evenodd" d="M38.5 14C38.5 15.933 36.9331 17.5 35 17.5C33.067 17.5 31.5 15.933 31.5 14C31.5 12.067 33.067 10.5 35 10.5C36.9331 10.5 38.5 12.067 38.5 14Z" fill="black"/>
<path fill-rule="evenodd" clip-rule="evenodd" d="M38.5 28C38.5 29.9331 36.9331 31.5 35 31.5C33.067 31.5 31.5 29.9331 31.5 28C31.5 26.067 33.067 24.5 35 24.5C36.9331 24.5 38.5 26.067 38.5 28Z" fill="black"/>
<path fill-rule="evenodd" clip-rule="evenodd" d="M24.5 28C24.5 29.9331 22.9331 31.5 21 31.5C19.067 31.5 17.5 29.9331 17.5 28C17.5 26.067 19.067 24.5 21 24.5C22.9331 24.5 24.5 26.067 24.5 28Z" fill="black"/>
<path fill-rule="evenodd" clip-rule="evenodd" d="M10.5 14C10.5 15.933 8.933 17.5 7 17.5C5.067 17.5 3.5 15.933 3.5 14C3.5 12.067 5.067 10.5 7 10.5C8.933 10.5 10.5 12.067 10.5 14Z" fill="black"/>
<path fill-rule="evenodd" clip-rule="evenodd" d="M10.5 28C10.5 29.9331 8.933 31.5 7 31.5C5.067 31.5 3.5 29.9331 3.5 28C3.5 26.067 5.067 24.5 7 24.5C8.933 24.5 10.5 26.067 10.5 28Z" fill="black"/>
<path fill-rule="evenodd" clip-rule="evenodd" d="M24.5 14C24.5 15.933 22.9331 17.5 21 17.5C19.067 17.5 17.5 15.933 17.5 14C17.5 12.067 19.067 10.5 21 10.5C22.9331 10.5 24.5 12.067 24.5 14Z" fill="black"/>
</svg>
