<svg width="36" height="36" viewBox="0 0 36 36" fill="none" xmlns="http://www.w3.org/2000/svg">
<g clip-path="url(#clip0_23_96)">
<path d="M18.5664 3.74402L18 4.80002V13.2H34.8L35.3544 12.1368L18.5664 3.74402Z" fill="black"/>
<path d="M17.4336 3.74402L18 4.80002V13.2H1.20003L0.64563 12.1368L17.4336 3.74402Z" fill="black"/>
<path d="M17.4336 22.656L18 21.6V13.2H1.20003L0.64563 14.2632L17.4336 22.656Z" fill="black"/>
<path d="M18.5664 22.656L18 21.6V13.2H34.8L35.3544 14.2632L18.5664 22.656Z" fill="black"/>
<path d="M34.8 14.4C35.4627 14.4 36 13.8627 36 13.2C36 12.5373 35.4627 12 34.8 12C34.1372 12 33.6 12.5373 33.6 13.2C33.6 13.8627 34.1372 14.4 34.8 14.4Z" fill="black"/>
<path d="M1.2 14.4C1.86274 14.4 2.4 13.8627 2.4 13.2C2.4 12.5373 1.86274 12 1.2 12C0.537258 12 0 12.5373 0 13.2C0 13.8627 0.537258 14.4 1.2 14.4Z" fill="black"/>
<path d="M18 22.8C18.6627 22.8 19.2 22.2628 19.2 21.6C19.2 20.9373 18.6627 20.4 18 20.4C17.3372 20.4 16.8 20.9373 16.8 21.6C16.8 22.2628 17.3372 22.8 18 22.8Z" fill="black"/>
<path d="M18 5.99998C18.6627 5.99998 19.2 5.46272 19.2 4.79998C19.2 4.13723 18.6627 3.59998 18 3.59998C17.3372 3.59998 16.8 4.13723 16.8 4.79998C16.8 5.46272 17.3372 5.99998 18 5.99998Z" fill="black"/>
<path d="M19.6392 24.8028C19.5384 24.8532 19.4364 24.8952 19.3332 24.93C18.8988 25.1088 18.4524 25.2 18 25.2C17.5488 25.2 17.1036 25.11 16.6716 24.9312C16.5672 24.8964 16.4628 24.8532 16.3608 24.8016L7.20001 20.2224V25.2C7.20001 28.5132 12.0348 31.2 18 31.2C23.9652 31.2 28.8 28.5132 28.8 25.2V20.2224L19.6392 24.8028Z" fill="black"/>
<path d="M32.4 18.4236V31.2C32.4 31.8636 32.9376 32.4 33.6 32.4C34.2624 32.4 34.8 31.8636 34.8 31.2V17.2236L32.4 18.4236Z" fill="black"/>
<path d="M36 31.2C36 32.526 33.6 36 33.6 36C33.6 36 31.2 32.526 31.2 31.2C31.2 29.874 32.274 28.8 33.6 28.8C34.926 28.8 36 29.874 36 31.2Z" fill="black"/>
</g>
<defs>
<clipPath id="clip0_23_96">
<rect width="36" height="36" fill="white"/>
</clipPath>
</defs>
</svg>
