<svg width="14" height="14" viewBox="0 0 14 14" fill="none" xmlns="http://www.w3.org/2000/svg">
<g clip-path="url(#clip0_23_176)">
<path d="M13.125 2.04169H0.875C0.642936 2.04169 0.420376 2.13387 0.256282 2.29797C0.0921872 2.46206 0 2.68462 0 2.91669L0 11.0834C0 11.3154 0.0921872 11.538 0.256282 11.7021C0.420376 11.8662 0.642936 11.9584 0.875 11.9584H13.125C13.3571 11.9584 13.5796 11.8662 13.7437 11.7021C13.9078 11.538 14 11.3154 14 11.0834V2.91669C14 2.68462 13.9078 2.46206 13.7437 2.29797C13.5796 2.13387 13.3571 2.04169 13.125 2.04169ZM12.9383 2.62502L7 7.21585L1.06167 2.62502H12.9383ZM0.583333 10.9638V2.99252L5.07792 6.46627L0.583333 10.9638ZM0.994583 11.375L5.54167 6.82794L6.81917 7.81669C6.87017 7.85595 6.93272 7.87724 6.99708 7.87724C7.06144 7.87724 7.124 7.85595 7.175 7.81669L8.45833 6.82794L13.0054 11.375H0.994583ZM13.4167 10.9638L8.92208 6.46627L13.4167 2.99252V10.9638Z" fill="black"/>
</g>
<defs>
<clipPath id="clip0_23_176">
<rect width="14" height="14" fill="white"/>
</clipPath>
</defs>
</svg>
