<svg width="19" height="19" viewBox="0 0 19 19" fill="none" xmlns="http://www.w3.org/2000/svg">
<path fill-rule="evenodd" clip-rule="evenodd" d="M9.49789 1.74915C4.93967 1.74915 1.24343 5.44461 1.24343 10.0036C1.24343 13.6506 3.60861 16.7447 6.88834 17.8362C7.30082 17.9126 7.45233 17.6571 7.45233 17.4391C7.45233 17.2424 7.44475 16.592 7.44116 15.9022C5.14476 16.4016 4.66019 14.9283 4.66019 14.9283C4.28467 13.9743 3.74371 13.7205 3.74371 13.7205C2.99471 13.2082 3.80017 13.2188 3.80017 13.2188C4.62897 13.277 5.06549 14.0695 5.06549 14.0695C5.80169 15.3314 6.99648 14.9665 7.46759 14.7556C7.54169 14.2222 7.75551 13.8579 7.99165 13.6518C6.15821 13.4431 4.23079 12.7353 4.23079 9.57241C4.23079 8.67129 4.55329 7.9349 5.08136 7.35682C4.99567 7.14884 4.7131 6.30934 5.16134 5.17229C5.16134 5.17229 5.85453 4.95057 7.43179 6.01852C8.09027 5.8356 8.79645 5.74388 9.49793 5.7407C10.1994 5.74388 10.9061 5.8356 11.5657 6.01852C13.1413 4.95057 13.8335 5.17229 13.8335 5.17229C14.2827 6.30934 14.0002 7.14884 13.9145 7.35682C14.4437 7.9349 14.764 8.67126 14.764 9.57241C14.764 12.7429 12.8329 13.4408 10.9948 13.6452C11.2909 13.9014 11.5546 14.4037 11.5546 15.1738C11.5546 16.2783 11.5452 17.1672 11.5452 17.4391C11.5452 17.6588 11.6937 17.9162 12.1121 17.8352C15.3901 16.7425 17.7523 13.6494 17.7523 10.0036C17.7523 5.44461 14.0566 1.74915 9.49789 1.74915Z" fill="#2C2C2C"/>
<path d="M4.36985 13.6007C4.35168 13.6418 4.28709 13.654 4.22834 13.6259C4.16841 13.599 4.13491 13.543 4.15425 13.5019C4.17201 13.4597 4.23659 13.4479 4.29641 13.4761C4.35637 13.5031 4.39056 13.5595 4.36985 13.6007Z" fill="#2C2C2C"/>
<path d="M4.70422 13.9736C4.66488 14.01 4.58781 13.9931 4.53559 13.9355C4.48153 13.8779 4.47155 13.8009 4.5115 13.7639C4.55208 13.7275 4.62672 13.7445 4.68074 13.8021C4.73483 13.8603 4.74535 13.9367 4.70422 13.9736Z" fill="#2C2C2C"/>
<path d="M5.0297 14.449C4.97909 14.4842 4.89633 14.4512 4.84519 14.3778C4.79458 14.3044 4.7946 14.2163 4.84638 14.181C4.89752 14.1458 4.9791 14.1775 5.03088 14.2503C5.08136 14.325 5.08134 14.4131 5.0297 14.449Z" fill="#2C2C2C"/>
<path d="M5.47554 14.9083C5.43026 14.9582 5.33386 14.9447 5.26342 14.8767C5.19119 14.8102 5.17117 14.7157 5.21641 14.6658C5.26236 14.6158 5.35927 14.6298 5.43025 14.6974C5.50193 14.7638 5.5237 14.8589 5.47554 14.9083Z" fill="#2C2C2C"/>
<path d="M6.09063 15.175C6.07062 15.2396 5.97787 15.269 5.8844 15.2415C5.79096 15.2132 5.72998 15.1375 5.74878 15.0722C5.76812 15.0071 5.86139 14.9765 5.9555 15.0059C6.04884 15.034 6.10997 15.1092 6.09063 15.175Z" fill="#2C2C2C"/>
<path d="M6.76622 15.2244C6.76846 15.2925 6.68917 15.3489 6.59108 15.3501C6.49241 15.3524 6.41244 15.2973 6.4114 15.2303C6.4114 15.1615 6.4889 15.1057 6.5876 15.104C6.6857 15.1021 6.76622 15.1568 6.76622 15.2244Z" fill="#2C2C2C"/>
<path d="M7.39482 15.1175C7.40655 15.1838 7.33829 15.252 7.24084 15.2702C7.14502 15.2878 7.0564 15.2467 7.04414 15.1809C7.03227 15.1128 7.10164 15.0446 7.19739 15.027C7.29498 15.01 7.38239 15.0499 7.39482 15.1175Z" fill="#2C2C2C"/>
</svg>
