<svg width="36" height="37" viewBox="0 0 36 37" fill="none" xmlns="http://www.w3.org/2000/svg">
<path d="M23.3888 5.25554C22.0205 3.801 20.1094 3 18 3C15.8794 3 13.962 3.79615 12.6 5.24169C11.2233 6.70315 10.5525 8.68938 10.71 10.8342C11.0222 15.0655 14.2924 18.5077 18 18.5077C21.7076 18.5077 24.9722 15.0662 25.2893 10.8355C25.4489 8.71015 24.7739 6.72808 23.3888 5.25554Z" fill="black"/>
<path d="M30.375 34.0154H5.62498C5.30102 34.0195 4.9802 33.9525 4.68586 33.8192C4.39151 33.686 4.13105 33.4897 3.92341 33.2449C3.46638 32.7069 3.28216 31.9724 3.41857 31.2295C4.01201 27.9882 5.86404 25.2653 8.77498 23.3539C11.3611 21.657 14.6369 20.7231 18 20.7231C21.363 20.7231 24.6389 21.6577 27.225 23.3539C30.1359 25.2646 31.9879 27.9875 32.5814 31.2289C32.7178 31.9717 32.5336 32.7062 32.0765 33.2442C31.869 33.4892 31.6085 33.6855 31.3142 33.8189C31.0198 33.9523 30.699 34.0195 30.375 34.0154Z" fill="black"/>
</svg>
