<svg width="14" height="14" viewBox="0 0 14 14" fill="none" xmlns="http://www.w3.org/2000/svg">
<g clip-path="url(#clip0_23_181)">
<path d="M3.86458 6.29708C4.70458 7.94792 6.055 9.29833 7.70875 10.1383L8.99208 8.85208C9.1525 8.69167 9.38292 8.645 9.58417 8.70917C10.2375 8.925 10.9404 9.04167 11.6667 9.04167C11.9904 9.04167 12.25 9.30125 12.25 9.625V11.6667C12.25 11.9904 11.9904 12.25 11.6667 12.25C6.18917 12.25 1.75 7.81083 1.75 2.33333C1.75 2.00958 2.0125 1.75 2.33333 1.75H4.375C4.69875 1.75 4.95833 2.00958 4.95833 2.33333C4.95833 3.05958 5.075 3.7625 5.29083 4.41583C5.355 4.61708 5.30833 4.8475 5.14792 5.00792L3.86458 6.29708Z" fill="black"/>
</g>
<defs>
<clipPath id="clip0_23_181">
<rect width="14" height="14" fill="white"/>
</clipPath>
</defs>
</svg>
