<svg width="42" height="42" viewBox="0 0 42 42" fill="none" xmlns="http://www.w3.org/2000/svg">
<g filter="url(#filter0_d_23_124)">
<path fill-rule="evenodd" clip-rule="evenodd" d="M18.2401 21.8023L16.2362 23.7495L19.6634 25.1331L18.2401 21.8023ZM5.15728 13.1516L5.80015 13.7766L7.98223 11.6539L7.33943 11.0311C7.16351 10.858 6.93112 10.7725 6.69776 10.7725C6.46439 10.7725 6.23201 10.858 6.05616 11.0311L5.15728 11.904C4.98023 12.075 4.89227 12.3009 4.89227 12.529C4.89227 12.7547 4.98136 12.9805 5.15728 13.1516ZM8.37471 12.0355L6.19137 14.1582L6.48352 14.441L8.66672 12.3183L8.37471 12.0355ZM9.05815 12.6999L6.876 14.8225L11.7963 19.6072L11.7986 19.6094L11.8019 19.6116L11.8042 19.6138L15.7546 23.4556L17.9369 21.333L11.4118 14.9891L11.4083 14.9869L9.05815 12.6999ZM11.8854 14.6866L18.5154 21.1335L18.5198 21.1379L18.5255 21.1422L18.5312 21.1466L18.5356 21.1532L18.5425 21.1576L18.5446 21.1597V21.1619L18.547 21.164H18.5482L18.5493 21.1662C18.5763 21.1947 18.5967 21.2254 18.6079 21.2606L18.609 21.2649L20.4303 25.5277L20.4314 25.532H20.4325V25.5343L20.4337 25.5364L20.436 25.5408L20.4372 25.5451L20.4383 25.5473L20.4394 25.5516L20.4405 25.5539L20.4417 25.5582V25.5604L20.4428 25.5648H20.4441V25.5669V25.5691L20.4452 25.5712V25.5734L20.4463 25.5756V25.5777V25.58L20.4474 25.5821V25.5844V25.5865L20.4486 25.5887V25.5909V25.593V25.5952L20.4497 25.5996V25.6017L20.4508 25.6039V25.6105V25.6149V25.617V25.6214V25.6235V25.6302V25.6368V25.6434V25.6477V25.6499V25.6542L20.4497 25.6564V25.6607L20.4486 25.663V25.6674V25.6695L20.4474 25.6739V25.676L20.4463 25.6803V25.6826V25.6847L20.4452 25.6869L20.4441 25.6891V25.6935L20.4428 25.6956L20.4417 25.7V25.7022H20.4405L20.4361 25.7153V25.7197H20.4349V25.7218L20.4326 25.7261L20.4315 25.7284L20.4304 25.7327L20.4282 25.737L20.4269 25.7393L20.4247 25.7436V25.7458L20.4224 25.7501H20.4213L20.419 25.7545L20.4178 25.7566L20.4157 25.761L20.4145 25.7632L20.4124 25.7654L20.4112 25.7675L20.4089 25.7719L20.4078 25.7741L20.4055 25.7763L20.4033 25.7784L20.402 25.7827L20.3998 25.7849L20.3976 25.7871L20.3965 25.7894L20.3941 25.7937L20.3919 25.7959L20.3896 25.798L20.3874 25.8002L20.3851 25.8024L20.3828 25.8067H20.3806L20.3783 25.8111L20.3761 25.8132L20.3738 25.8154L20.3716 25.8176L20.3693 25.8197L20.367 25.822L20.3637 25.8242L20.3624 25.8264L20.3591 25.8285L20.3569 25.8307L20.3535 25.8329L20.3524 25.835L20.3491 25.8372L20.3468 25.8393L20.3434 25.8416L20.3412 25.8437L20.3378 25.8459H20.3355L20.3333 25.8481L20.3299 25.8502L20.3276 25.8525L20.3243 25.8546H20.322L20.3187 25.8568L20.3164 25.859L20.313 25.8612L20.3108 25.8633L20.3062 25.8655H20.3039L20.3006 25.8677H20.2983L20.2939 25.8698L20.2928 25.8721L20.2871 25.8742H20.2859L20.2814 25.8764H20.2802L20.2781 25.8786H20.2747L20.2712 25.8807H20.2679L20.2645 25.883L20.2555 25.8851H20.2544L20.251 25.8873H20.2487H20.2475H20.2442H20.2431L20.2408 25.8895H20.2375H20.2364H20.234L20.2307 25.8916H20.2296H20.2274H20.2239H20.2228L20.2205 25.8938H20.2171H20.216H20.2137H20.2104H20.207L20.2036 25.896H20.1968H20.19H20.1833H20.18H20.1765H20.1732H20.1698H20.1665H20.1632H20.1597H20.1563H20.1528H20.1495L20.1462 25.8938H20.1428H20.1395L20.1259 25.8916H20.1226H20.1203L20.117 25.8895H20.1101H20.109L20.1068 25.8873H20.1033L20.0752 25.8785L20.0718 25.8763H20.0696L15.6849 24.1066L15.6816 24.1045C15.6421 24.0913 15.6061 24.0695 15.5756 24.0409L15.5666 24.0321L15.5588 24.0255L15.552 24.0168L11.8854 20.4558V29.7491L31.6857 29.8894V3.59965H11.8854V14.6866ZM20.9248 9.38655V12.2373H23.6855C23.62 11.4741 23.2727 10.7878 22.7472 10.2746C22.2645 9.80757 21.633 9.48512 20.9248 9.38655ZM26.3627 6.95022H20.9248V8.84049C21.7841 8.9457 22.5555 9.3294 23.1374 9.89528C23.7644 10.5048 24.1749 11.3249 24.2426 12.2373H26.3627V6.95022ZM23.6854 12.7766H20.6468C20.4945 12.7766 20.3704 12.656 20.3704 12.5069V9.3536C19.5055 9.37335 18.7251 9.72199 18.1567 10.2746C17.5692 10.847 17.206 11.6364 17.206 12.5069C17.206 13.3796 17.5691 14.169 18.1555 14.7392C18.7431 15.3093 19.555 15.6623 20.4517 15.6623C21.3488 15.6623 22.1584 15.3093 22.7471 14.7392C23.2727 14.2282 23.6178 13.542 23.6854 12.7766ZM20.6468 6.4108H26.6401C26.7936 6.4108 26.9176 6.53138 26.9176 6.68047V12.5069C26.9176 12.656 26.7935 12.7766 26.6401 12.7766H24.2426C24.1748 13.6887 23.7644 14.511 23.1395 15.1207C22.4517 15.7872 21.5021 16.2017 20.4517 16.2017C19.4039 16.2017 18.4544 15.7894 17.7652 15.1207C17.0763 14.4497 16.6511 13.5265 16.6511 12.5069C16.6511 11.4894 17.0763 10.5662 17.7642 9.89733C18.4364 9.24388 19.3543 8.83386 20.3703 8.81411V6.68054C20.3704 6.53138 20.4945 6.4108 20.6468 6.4108ZM22.4517 28.4706C22.2983 28.4706 22.1742 28.35 22.1742 28.2009C22.1742 28.0518 22.2983 27.9312 22.4517 27.9312H29.4166V20.7322C29.4166 20.5852 29.5407 20.4625 29.694 20.4625C29.8474 20.4625 29.9714 20.5852 29.9714 20.7322V28.2009C29.9714 28.3501 29.8474 28.4706 29.694 28.4706H22.4517ZM29.9805 32.683C30.1316 32.683 30.2579 32.8037 30.2579 32.9527C30.2579 33.1019 30.1316 33.2225 29.9805 33.2225H20.5542C20.4009 33.2225 20.2769 33.1018 20.2769 32.9527C20.2769 32.8036 20.4009 32.683 20.5542 32.683H29.9805ZM8.63515 33.2226C8.4818 33.2226 8.35784 33.1019 8.35784 32.9528C8.35784 32.8037 8.4818 32.6831 8.63515 32.6831H12.7943C12.9466 32.6831 13.0717 32.8037 13.0717 32.9528C13.0717 33.102 12.9466 33.2226 12.7943 33.2226H8.63515ZM16.4628 33.2226C16.3106 33.2226 16.1855 33.1019 16.1855 32.9528C16.1855 32.8037 16.3106 32.6831 16.4628 32.6831H18.3597C18.5131 32.6831 18.6372 32.8037 18.6372 32.9528C18.6372 33.102 18.5131 33.2226 18.3597 33.2226H16.4628ZM10.5647 11.4083C10.5647 11.5574 10.4396 11.678 10.2874 11.678C10.134 11.678 10.0099 11.5574 10.0099 11.4083V2.04714C10.0099 1.89792 10.134 1.77747 10.2874 1.77747H15.8121C15.9654 1.77747 16.0895 1.89798 16.0895 2.04714C16.0895 2.19398 15.9654 2.31457 15.8121 2.31457H10.5647V11.4083ZM13.7991 31.7906C13.6469 31.7906 13.5229 31.67 13.5229 31.5209C13.5229 31.3718 13.6469 31.2512 13.7991 31.2512H35.8514C36.0026 31.2512 36.129 31.3719 36.129 31.5209C36.129 31.6701 36.0026 31.7906 35.8514 31.7906H13.7991ZM37.1078 5.64339H33.3908V28.8084H37.1078V27.8303H35.3441C35.1906 27.8303 35.0666 27.7097 35.0666 27.5606C35.0666 27.4115 35.1907 27.2909 35.3441 27.2909H37.1078V26.4357H36.1402C35.9869 26.4357 35.8628 26.3151 35.8628 26.166C35.8628 26.0169 35.9869 25.8964 36.1402 25.8964H37.1078V25.0916H35.3441C35.1906 25.0916 35.0666 24.971 35.0666 24.8219C35.0666 24.6728 35.1907 24.5522 35.3441 24.5522H37.1078V23.697H36.1402C35.9869 23.697 35.8628 23.5764 35.8628 23.4274C35.8628 23.2781 35.9869 23.1577 36.1402 23.1577H37.1078V22.3529H35.3441C35.1906 22.3529 35.0666 22.2323 35.0666 22.0832C35.0666 21.9341 35.1907 21.8135 35.3441 21.8135H37.1078V20.9583H36.1402C35.9869 20.9583 35.8628 20.8376 35.8628 20.6885C35.8628 20.5394 35.9869 20.4189 36.1402 20.4189H37.1078V19.6141H35.3441C35.1906 19.6141 35.0666 19.4935 35.0666 19.3445C35.0666 19.1952 35.1907 19.0747 35.3441 19.0747H37.1078V18.2195H36.1402C35.9869 18.2195 35.8628 18.0967 35.8628 17.9499C35.8628 17.8007 35.9869 17.6802 36.1402 17.6802H37.1078V16.8754H35.3441C35.1906 16.8754 35.0666 16.7548 35.0666 16.6057C35.0666 16.4566 35.1907 16.336 35.3441 16.336H37.1078V15.4808H36.1402C35.9869 15.4808 35.8628 15.3579 35.8628 15.2111C35.8628 15.0619 35.9869 14.9414 36.1402 14.9414H37.1078V14.1367H35.3441C35.1906 14.1367 35.0666 14.016 35.0666 13.867C35.0666 13.7178 35.1907 13.5973 35.3441 13.5973H37.1078V12.7398H36.1402C35.9869 12.7398 35.8628 12.6192 35.8628 12.4701C35.8628 12.3233 35.9869 12.2004 36.1402 12.2004H37.1078V11.3979H35.3441C35.1906 11.3979 35.0666 11.275 35.0666 11.1282C35.0666 10.979 35.1907 10.8585 35.3441 10.8585H37.1078V10.0011H36.1402C35.9869 10.0011 35.8628 9.88051 35.8628 9.73142C35.8628 9.58458 35.9869 9.46174 36.1402 9.46174H37.1078V8.6592H35.3441C35.1906 8.6592 35.0666 8.53636 35.0666 8.38953C35.0666 8.2403 35.1907 8.11978 35.3441 8.11978H37.1078V7.26235H36.1402C35.9869 7.26235 35.8628 7.14169 35.8628 6.99267C35.8628 6.84365 35.9869 6.72292 36.1402 6.72292H37.1078V5.64339Z" fill="black"/>
</g>
<defs>
<filter id="filter0_d_23_124" x="-1" y="0" width="44" height="43" filterUnits="userSpaceOnUse" color-interpolation-filters="sRGB">
<feFlood flood-opacity="0" result="BackgroundImageFix"/>
<feColorMatrix in="SourceAlpha" type="matrix" values="0 0 0 0 0 0 0 0 0 0 0 0 0 0 0 0 0 0 127 0" result="hardAlpha"/>
<feOffset dy="4"/>
<feGaussianBlur stdDeviation="2"/>
<feComposite in2="hardAlpha" operator="out"/>
<feColorMatrix type="matrix" values="0 0 0 0 0 0 0 0 0 0 0 0 0 0 0 0 0 0 0.25 0"/>
<feBlend mode="normal" in2="BackgroundImageFix" result="effect1_dropShadow_23_124"/>
<feBlend mode="normal" in="SourceGraphic" in2="effect1_dropShadow_23_124" result="shape"/>
</filter>
</defs>
</svg>
