<svg width="20" height="20" viewBox="0 0 20 20" fill="none" xmlns="http://www.w3.org/2000/svg">
<g clip-path="url(#clip0_23_30)">
<path d="M18.75 11.25C18.5858 11.2499 18.4232 11.2822 18.2715 11.345C18.1198 11.4077 17.982 11.4998 17.8659 11.6159C17.7498 11.732 17.6577 11.8698 17.595 12.0215C17.5322 12.1732 17.4999 12.3358 17.5 12.5V16.25H2.5V12.5C2.5 12.1685 2.3683 11.8505 2.13388 11.6161C1.89946 11.3817 1.58152 11.25 1.25 11.25C0.91848 11.25 0.600537 11.3817 0.366117 11.6161C0.131696 11.8505 2.00941e-07 12.1685 2.00941e-07 12.5V17.5C-9.29127e-05 17.6642 0.0321757 17.8268 0.0949611 17.9785C0.157747 18.1302 0.249817 18.268 0.365909 18.3841C0.482001 18.5002 0.619837 18.5923 0.771536 18.655C0.923235 18.7178 1.08582 18.7501 1.25 18.75H18.75C18.9142 18.7501 19.0768 18.7178 19.2285 18.655C19.3802 18.5923 19.518 18.5002 19.6341 18.3841C19.7502 18.268 19.8423 18.1302 19.905 17.9785C19.9678 17.8268 20.0001 17.6642 20 17.5V12.5C20.0001 12.3358 19.9678 12.1732 19.905 12.0215C19.8423 11.8698 19.7502 11.732 19.6341 11.6159C19.518 11.4998 19.3802 11.4077 19.2285 11.345C19.0768 11.2822 18.9142 11.2499 18.75 11.25Z" fill="black"/>
<path d="M9.1162 13.3838C9.23224 13.4999 9.37002 13.592 9.52167 13.6548C9.67331 13.7177 9.83585 13.75 9.99999 13.75C10.1641 13.75 10.3267 13.7177 10.4783 13.6548C10.63 13.592 10.7677 13.4999 10.8838 13.3838L14.6338 9.63379C14.8671 9.39917 14.9979 9.0816 14.9974 8.75072C14.9969 8.41984 14.8653 8.10263 14.6313 7.86866C14.3974 7.63469 14.0802 7.50305 13.7493 7.50258C13.4184 7.50212 13.1008 7.63289 12.8662 7.86621L11.25 9.48242V2.5C11.25 2.16848 11.1183 1.85054 10.8839 1.61612C10.6495 1.3817 10.3315 1.25 9.99999 1.25C9.66847 1.25 9.35053 1.3817 9.11611 1.61612C8.88169 1.85054 8.74999 2.16848 8.74999 2.5V9.48242L7.13379 7.86621C6.89916 7.63289 6.5816 7.50212 6.25072 7.50258C5.91983 7.50305 5.60263 7.63469 5.36866 7.86866C5.13469 8.10263 5.00304 8.41984 5.00258 8.75072C5.00212 9.0816 5.13288 9.39917 5.3662 9.63379L9.1162 13.3838Z" fill="black"/>
</g>
<defs>
<clipPath id="clip0_23_30">
<rect width="20" height="20" fill="white"/>
</clipPath>
</defs>
</svg>
